<svg width="198" height="21" viewBox="0 0 198 21" fill="none" xmlns="http://www.w3.org/2000/svg">
<g clip-path="url(#clip0_948_2645)">
<path d="M1.1011 3.31024L3.80587 3.31024L4.41306 0.271484L8.66341 0.271484L8.05622 3.31024L10.4298 3.31024L11.037 0.271484L15.2873 0.271484L14.6801 3.31024L16.8329 3.31024L16.7225 6.62032H14.073L13.521 9.49629H15.6737L15.5633 12.8064H12.8034L12.1962 15.8451H8.00102L8.60822 12.8064H6.23464L5.62745 15.8451L1.3771 15.8451L1.98429 12.8064H-0.113281L-0.00288256 9.49629H2.70189L3.25388 6.62032L1.1011 6.62032L1.1011 3.31024ZM6.84184 9.49629H9.21541L9.7674 6.62032L7.44903 6.62032L6.84184 9.49629Z" fill="#D90002"/>
<path d="M40.793 0.271484L42.2834 6.51179L46.4233 0.271484L50.9497 0.271484L40.6826 15.7909H36.1562L39.3026 10.9614L36.2114 0.271484L40.793 0.271484Z" fill="#191826"/>
<path d="M52.3826 0.271484L58.6202 0.271484C62.1529 0.271484 63.7537 1.46528 63.7537 3.5273C63.7805 4.41743 63.5235 5.29352 63.0187 6.03298C62.5139 6.77244 61.7866 7.33828 60.9385 7.65133C61.5895 7.79178 62.1709 8.14975 62.5835 8.66425C62.9962 9.17875 63.2147 9.81797 63.2017 10.473C63.2108 10.7095 63.1923 10.9462 63.1465 11.1785C62.5945 13.8916 60.497 15.7909 55.9154 15.7909L49.3467 15.7909L52.3826 0.271484ZM58.7306 10.5816C58.7306 9.82187 58.1234 9.49629 56.8538 9.49629H54.977L54.3698 12.4808L56.2466 12.4808C57.6818 12.4808 58.3994 12.1009 58.6754 10.9614C58.7247 10.841 58.7437 10.7107 58.7306 10.5816ZM59.393 4.55831C59.393 3.85288 58.841 3.63583 57.737 3.63583L56.1362 3.63583L55.5842 6.29474H57.185C58.5098 6.29474 59.117 5.9149 59.3378 4.93815C59.383 4.81674 59.4018 4.68733 59.393 4.55831Z" fill="#191826"/>
<path d="M77.5529 0.271484L79.7056 15.7909H75.0137L74.7377 13.2405H69.3834L68.1138 15.7909H63.4219L71.8122 0.271484L77.5529 0.271484ZM71.1498 9.71335H74.4065L73.8545 4.23273L71.1498 9.71335Z" fill="#191826"/>
<path d="M88.7048 10.7986L87.1592 10.7986L86.1656 15.7909H81.7496L84.8408 0.271484L90.8023 0.271484C94.2799 0.271484 96.5431 1.57381 96.5431 4.28699C96.5312 4.68677 96.4943 5.08545 96.4327 5.48079C95.7151 9.11645 92.6791 10.7986 88.7048 10.7986ZM92.0167 4.99242C92.0167 4.01567 91.2991 3.63583 90.0295 3.63583L88.5944 3.63583L87.8216 7.48854H89.2567C90.7471 7.48854 91.6855 6.9459 91.9615 5.53505C91.9615 5.37226 92.0167 5.15521 92.0167 4.99242Z" fill="#191826"/>
<path d="M118.791 3.79862L114.375 3.79862L115.093 0.271484L128.396 0.271484L127.678 3.79862L123.262 3.79862L120.833 15.8451L116.417 15.8451L118.791 3.79862Z" fill="#191826"/>
<path d="M134.245 10.7986L132.699 10.7986L131.706 15.7909H127.29L130.381 0.271484L136.397 0.271484C139.875 0.271484 142.138 1.57381 142.138 4.28699C142.126 4.68677 142.089 5.08545 142.028 5.48079C141.255 9.11645 138.219 10.7986 134.245 10.7986ZM137.557 4.99242C137.557 4.01567 136.839 3.63583 135.569 3.63583L134.134 3.63583L133.361 7.48854H134.797C136.287 7.48854 137.225 6.94591 137.501 5.53505C137.547 5.35786 137.566 5.17498 137.557 4.99242Z" fill="#191826"/>
<path d="M142.855 10.093C142.855 4.23256 147.106 0 152.46 0C156.6 0 158.863 2.3876 158.863 6.02325C158.863 11.8295 154.558 16.062 149.259 16.062C145.174 16.062 142.855 13.7287 142.855 10.093ZM154.337 6.56589C154.337 4.66667 153.399 3.52713 151.798 3.52713C149.535 3.52713 147.437 5.91473 147.437 9.49612C147.437 11.3411 148.375 12.4806 149.976 12.4806C152.184 12.5349 154.337 10.2015 154.337 6.56589Z" fill="#191826"/>
<path d="M162.728 0.271484L167.033 0.271484L165.322 8.7366L172.167 0.271484L176.528 0.271484L173.437 15.7909H169.131L170.842 7.32575L163.997 15.7909H159.637L162.728 0.271484Z" fill="#191826"/>
<path d="M182.268 3.79862L177.852 3.79862L178.57 0.271484L191.873 0.271484L191.155 3.79862L186.739 3.79862L184.311 15.8451L179.895 15.8451L182.268 3.79862Z" fill="#191826"/>
<path d="M107.194 0C110.561 0 113.873 1.73643 113.653 5.96899L109.733 5.96899C109.513 4.17829 108.188 3.68992 106.477 3.68992C103.717 3.68992 102.006 5.91473 101.509 8.41085C101.067 10.6899 102.502 12.3178 104.821 12.3178C105.678 12.3537 106.526 12.1347 107.255 11.6894C107.984 11.2442 108.559 10.5933 108.905 9.8217H112.99C111.5 14.3256 107.526 16.062 104.103 16.062C99.9632 16.062 96.32 13.2946 97.3136 7.92248C98.3072 2.55039 102.834 0 107.194 0Z" fill="#191826"/>
<path d="M29.3701 0C32.7372 0 36.0492 1.73643 35.8284 5.96899L31.9093 5.96899C31.6885 4.1783 30.3637 3.68992 28.6525 3.68992C25.8925 3.68992 24.1813 5.91473 23.6846 8.41085C23.243 10.6899 24.6781 12.3178 26.9965 12.3178C27.8537 12.3537 28.7021 12.1347 29.4307 11.6894C30.1594 11.2442 30.7346 10.5933 31.0813 9.82171H35.166C33.6756 14.3256 29.7013 16.062 26.2789 16.062C22.139 16.062 18.4958 13.2946 19.4894 7.92248C20.5934 2.49612 25.0645 0 29.3701 0Z" fill="#191826"/>
<path d="M194.525 16.0605C195.988 16.0605 197.174 14.8701 197.174 13.4016C197.174 11.9331 195.988 10.7427 194.525 10.7427C193.061 10.7427 191.875 11.9331 191.875 13.4016C191.875 14.8701 193.061 16.0605 194.525 16.0605Z" fill="#D90002"/>
</g>
<defs>
<clipPath id="clip0_948_2645">
<rect width="198" height="21" fill="white"/>
</clipPath>
</defs>
</svg>
