<svg width="36" height="34" viewBox="0 0 36 34" fill="none" xmlns="http://www.w3.org/2000/svg">
<mask id="mask0_948_4194" style="mask-type:alpha" maskUnits="userSpaceOnUse" x="0" y="0" width="36" height="26">
<path d="M0 0H36V16L18 26L0 16V0Z" fill="white"/>
</mask>
<g mask="url(#mask0_948_4194)">
<path d="M18 38C24.6274 38 30 32.6274 30 26C30 19.3726 24.6274 14 18 14C11.3726 14 6 19.3726 6 26C6 32.6274 11.3726 38 18 38Z" stroke="#8B8B91" stroke-width="1.5"/>
<path d="M18 34C22.4183 34 26 30.4183 26 26C26 21.5817 22.4183 18 18 18C13.5817 18 10 21.5817 10 26C10 30.4183 13.5817 34 18 34Z" stroke="#8B8B91" stroke-width="1.5"/>
<path d="M18 30C20.2091 30 22 28.2091 22 26C22 23.7909 20.2091 22 18 22C15.7909 22 14 23.7909 14 26C14 28.2091 15.7909 30 18 30Z" stroke="#8B8B91" stroke-width="1.5"/>
</g>
<path d="M18 25.4999V32.9999H6C4.34315 32.9999 3 31.6568 3 29.9999V15.5201C3 14.5645 3.45528 13.666 4.22591 13.1009L17.4086 3.43359C17.7606 3.17546 18.2394 3.17546 18.5914 3.43359L31.7741 13.1009C32.5447 13.666 33 14.5645 33 15.5201V29.9999C33 31.6568 31.6569 32.9999 30 32.9999H22.5" stroke="#8B8B91" stroke-width="1.5"/>
</svg>
