<svg width="34" height="34" viewBox="0 0 34 34" fill="none" xmlns="http://www.w3.org/2000/svg">
<path d="M10.7391 30.2173V31.6086C10.7391 32.3766 10.1158 32.9999 9.34777 32.9999H7.26081C6.49281 32.9999 5.86951 32.3766 5.86951 31.6086V30.2173" stroke="#8B8B91" stroke-width="1.5"/>
<path d="M28.1304 30.2173V31.6086C28.1304 32.3766 27.5071 32.9999 26.7391 32.9999H24.6522C23.8842 32.9999 23.2609 32.3766 23.2609 31.6086V30.2173" stroke="#8B8B91" stroke-width="1.5"/>
<path fill-rule="evenodd" clip-rule="evenodd" d="M28.8261 30.2174C29.5941 30.2174 30.2174 29.5941 30.2174 28.8261V4.47826C30.2174 2.55757 28.6605 1 26.7391 1H7.26085C5.34016 1 3.78259 2.55757 3.78259 4.47826V28.8261C3.78259 29.5941 4.4059 30.2174 5.1739 30.2174H28.8261Z" stroke="#8B8B91" stroke-width="1.5"/>
<path d="M3.78261 10.0435H2.3913C1.6233 10.0435 1 10.6668 1 11.4348V16.3043C1 17.0723 1.6233 17.6956 2.3913 17.6956H3.78261" stroke="#8B8B91" stroke-width="1.5"/>
<path d="M30.2174 10.0435H31.6087C32.3767 10.0435 33 10.6668 33 11.4348V16.3043C33 17.0723 32.3767 17.6956 31.6087 17.6956H30.2174" stroke="#8B8B91" stroke-width="1.5"/>
<path fill-rule="evenodd" clip-rule="evenodd" d="M26.0434 6.56519C26.8114 6.56519 27.4347 7.18849 27.4347 7.95649V19.7826C27.4347 20.5506 26.8114 21.1739 26.0434 21.1739H7.95649C7.18849 21.1739 6.56519 20.5506 6.56519 19.7826V7.95649C6.56519 7.18849 7.18849 6.56519 7.95649 6.56519H26.0434Z" stroke="#8B8B91" stroke-width="1.5"/>
<path d="M14.2174 3.78271H19.7826" stroke="#8B8B91" stroke-width="1.5"/>
<path d="M5.86951 24.6521H10.0434" stroke="#8B8B91" stroke-width="1.5"/>
<path d="M12.1305 27.4348H21.8696" stroke="#8B8B91" stroke-width="1.5"/>
<path d="M28.1305 24.6521H23.9565" stroke="#8B8B91" stroke-width="1.5"/>
<path d="M17 6.56519V21.1739" stroke="#8B8B91" stroke-width="1.5"/>
</svg>
