<svg width="34" height="33" viewBox="0 0 34 33" fill="none" xmlns="http://www.w3.org/2000/svg">
<path d="M14.5304 28.8052C15.8383 26.5234 15.3443 23.6991 13.5009 21.9809C7.9646 16.9786 5.50721 15.1803 5.61216 11.2483C4.41651 12.1645 3.38721 13.3213 2.58712 14.7069C-0.692966 20.3882 1.28538 27.611 6.91582 30.8616C8.94712 32.0304 11.3964 31.7821 13.1356 30.4186C12.9514 30.3204 12.7576 30.218 12.5709 30.1103C8.13077 27.5467 5.4246 23.1488 4.85712 18.4272" stroke="#D90002" stroke-width="1.5"/>
<path d="M8.92347 27.2173L3.83521 25.0669" stroke="#D90002" stroke-width="1.5"/>
<path d="M9.35437 21.1738V23.9564" stroke="#D90002" stroke-width="1.5"/>
<path d="M27.4118 14.2163C24.7818 14.2246 22.5828 16.0645 22.0166 18.52C20.4527 25.8158 20.1239 28.843 16.6661 30.7181C18.0574 31.2955 19.574 31.6087 21.174 31.6087C27.7342 31.6087 33 26.284 33 19.7826C32.9965 17.4391 31.5568 15.442 29.5065 14.6175C29.5134 14.8262 29.5218 15.0451 29.5218 15.2608C29.5218 20.3878 27.0661 24.9304 23.2609 27.7826" stroke="#D90002" stroke-width="1.5"/>
<path d="M28.84 19.866L29.5217 25.3477" stroke="#D90002" stroke-width="1.5"/>
<path d="M23.3942 22.5202L25.804 21.1289" stroke="#D90002" stroke-width="1.5"/>
<path d="M8.71195 10.2079C10.034 12.4813 12.727 13.4658 15.1367 12.7284C22.2369 10.4349 25.023 9.20603 28.3758 11.263C28.1802 9.76933 27.6931 8.2995 26.8931 6.91385C23.6129 1.23255 16.3687 -0.66554 10.7383 2.58516C8.71056 3.75994 7.70082 6.00524 8.01204 8.19316C8.18934 8.08281 8.37474 7.96611 8.56152 7.8582C13.0016 5.29481 18.1634 5.1502 22.5361 7.0195" stroke="#D90002" stroke-width="1.5"/>
<path d="M12.8906 6.14616L17.2971 2.81494" stroke="#D90002" stroke-width="1.5"/>
<path d="M17.9121 9.53535L15.5023 8.14404" stroke="#D90002" stroke-width="1.5"/>
</svg>
