<svg width="36" height="30" viewBox="0 0 36 30" fill="none" xmlns="http://www.w3.org/2000/svg">
<path d="M14.839 1.34964C11.559 0.491254 7.92061 1.18245 5.12343 3.5235C1.09492 6.89507 -0.0232846 12.3258 1.95202 16.9363C2.89646 19.1408 4.21681 20.6586 5.90365 22.0703C7.63877 23.5225 9.92696 24.9167 13.0119 26.5124L17.8213 29.0001L22.6919 26.6357C25.9207 25.0683 28.3091 23.6712 30.134 22.1439C31.959 20.6165 33.3765 18.9191 34.2827 16.4392C35.9857 11.7785 34.5866 6.67058 30.8263 3.5235C27.0823 0.390019 21.8814 0.212357 18 2.75008C14.1186 5.2878 7.5 12.5001 18 28.5001" stroke="#8B8B91" stroke-width="1.5"/>
<path d="M27.5 2L20.5 21.5" stroke="#8B8B91" stroke-width="1.5"/>
<path d="M25 8.5L20.5 10.5" stroke="#8B8B91" stroke-width="1.5"/>
<path d="M24 11.5L26.5 18.5" stroke="#8B8B91" stroke-width="1.5"/>
</svg>
