<svg width="34" height="35" viewBox="0 0 34 35" fill="none" xmlns="http://www.w3.org/2000/svg">
<path d="M2 26C2 27.6569 3.34315 29 5 29C6.65685 29 8 27.6569 8 26" stroke="#8B8B91" stroke-width="1.5"/>
<path d="M8 26C8 27.6569 9.34315 29 11 29C12.6569 29 14 27.6569 14 26" stroke="#8B8B91" stroke-width="1.5"/>
<path d="M14 26C14 27.6569 15.3431 29 17 29C18.6569 29 20 27.6569 20 26" stroke="#8B8B91" stroke-width="1.5"/>
<path d="M20 26C20 27.6569 21.3431 29 23 29C24.6569 29 26 27.6569 26 26" stroke="#8B8B91" stroke-width="1.5"/>
<path d="M26 26C26 27.6569 27.3431 29 29 29C30.6569 29 32 27.6569 32 26" stroke="#8B8B91" stroke-width="1.5"/>
<path d="M8 31C8 32.6569 9.34315 34 11 34C12.6569 34 14 32.6569 14 31" stroke="#8B8B91" stroke-width="1.5"/>
<path d="M14 31C14 32.6569 15.3431 34 17 34C18.6569 34 20 32.6569 20 31" stroke="#8B8B91" stroke-width="1.5"/>
<path d="M20 31C20 32.6569 21.3431 34 23 34C24.6569 34 26 32.6569 26 31" stroke="#8B8B91" stroke-width="1.5"/>
<path d="M26.8028 21.9956C27.5683 20.4965 28 18.7987 28 17C28 10.9249 23.0751 6 17 6C10.9249 6 6 10.9249 6 17C6 18.8002 6.43244 20.4994 7.19909 21.9994" stroke="#8B8B91" stroke-width="1.5"/>
<path d="M17 0V4" stroke="#8B8B91" stroke-width="1.5"/>
<path d="M25.5 2.27759L23.5 5.74169" stroke="#8B8B91" stroke-width="1.5"/>
<path d="M31.7224 8.5L28.2583 10.5" stroke="#8B8B91" stroke-width="1.5"/>
<path d="M34 17H30" stroke="#8B8B91" stroke-width="1.5"/>
<path d="M4 17H0" stroke="#8B8B91" stroke-width="1.5"/>
<path d="M5.7417 10.5L2.2776 8.5" stroke="#8B8B91" stroke-width="1.5"/>
<path d="M10.5 5.7417L8.5 2.2776" stroke="#8B8B91" stroke-width="1.5"/>
</svg>
