<svg width="16" height="16" viewBox="0 0 16 16" fill="none" xmlns="http://www.w3.org/2000/svg">
<path d="M7.99979 10.1334C9.178 10.1334 10.1331 9.17824 10.1331 8.00003C10.1331 6.82182 9.178 5.8667 7.99979 5.8667C6.82158 5.8667 5.86646 6.82182 5.86646 8.00003C5.86646 9.17824 6.82158 10.1334 7.99979 10.1334Z" fill="#9595A1"/>
<path d="M5.99992 1.3335L4.77992 2.66683H2.66659C1.93325 2.66683 1.33325 3.26683 1.33325 4.00016V12.0002C1.33325 12.7335 1.93325 13.3335 2.66659 13.3335H13.3333C14.0666 13.3335 14.6666 12.7335 14.6666 12.0002V4.00016C14.6666 3.26683 14.0666 2.66683 13.3333 2.66683H11.2199L9.99992 1.3335H5.99992ZM7.99992 11.3335C6.15992 11.3335 4.66659 9.84016 4.66659 8.00016C4.66659 6.16016 6.15992 4.66683 7.99992 4.66683C9.83992 4.66683 11.3333 6.16016 11.3333 8.00016C11.3333 9.84016 9.83992 11.3335 7.99992 11.3335Z" fill="#9595A1"/>
</svg>
